<?xml version="1.0" encoding="UTF-8"?>
<svg xmlns="http://www.w3.org/2000/svg" xmlns:xlink="http://www.w3.org/1999/xlink" width="106pt" height="106pt" viewBox="0 0 106 106" version="1.1">
<g id="surface1">
<path style=" stroke:none;fill-rule:nonzero;fill:rgb(26.27451%,50.196078%,62.352941%);fill-opacity:1;" d="M 104.445312 31.261719 L 1.554688 31.261719 L 1.554688 22.566406 C 1.554688 19.136719 4.332031 16.355469 7.765625 16.355469 L 98.234375 16.355469 C 101.667969 16.355469 104.445312 19.136719 104.445312 22.566406 Z M 104.445312 31.261719 "/>
<path style=" stroke:none;fill-rule:nonzero;fill:rgb(22.745098%,44.313725%,56.470588%);fill-opacity:1;" d="M 98.234375 16.355469 L 98.234375 31.261719 L 104.445312 31.261719 L 104.445312 22.566406 C 104.445312 19.136719 101.667969 16.355469 98.234375 16.355469 Z M 98.234375 16.355469 "/>
<path style=" stroke:none;fill-rule:nonzero;fill:rgb(66.27451%,85.882353%,96.078431%);fill-opacity:1;" d="M 98.234375 89.644531 L 7.765625 89.644531 C 4.332031 89.644531 1.554688 86.863281 1.554688 83.433594 L 1.554688 31.261719 L 104.445312 31.261719 L 104.445312 83.433594 C 104.445312 86.863281 101.667969 89.644531 98.234375 89.644531 Z M 98.234375 89.644531 "/>
<path style=" stroke:none;fill-rule:nonzero;fill:rgb(53.333333%,76.470588%,87.843137%);fill-opacity:1;" d="M 98.234375 31.261719 L 98.234375 89.644531 C 101.667969 89.644531 104.445312 86.863281 104.445312 83.433594 L 104.445312 31.261719 Z M 98.234375 31.261719 "/>
<path style=" stroke:none;fill-rule:nonzero;fill:rgb(16.078431%,80.784314%,96.470588%);fill-opacity:1;" d="M 14.597656 23.886719 C 14.597656 25.601562 13.207031 26.992188 11.492188 26.992188 C 9.777344 26.992188 8.386719 25.601562 8.386719 23.886719 C 8.386719 22.171875 9.777344 20.78125 11.492188 20.78125 C 13.207031 20.78125 14.597656 22.171875 14.597656 23.886719 Z M 14.597656 23.886719 "/>
<path style=" stroke:none;fill-rule:nonzero;fill:rgb(95.294118%,95.294118%,95.294118%);fill-opacity:1;" d="M 26.636719 23.886719 C 26.636719 25.601562 25.246094 26.992188 23.53125 26.992188 C 21.816406 26.992188 20.425781 25.601562 20.425781 23.886719 C 20.425781 22.171875 21.816406 20.78125 23.53125 20.78125 C 25.246094 20.78125 26.636719 22.171875 26.636719 23.886719 Z M 26.636719 23.886719 "/>
<path style=" stroke:none;fill-rule:nonzero;fill:rgb(96.862745%,55.686275%,21.176471%);fill-opacity:1;" d="M 38.679688 23.886719 C 38.679688 25.601562 37.289062 26.992188 35.574219 26.992188 C 33.859375 26.992188 32.46875 25.601562 32.46875 23.886719 C 32.46875 22.171875 33.859375 20.78125 35.574219 20.78125 C 37.289062 20.78125 38.679688 22.171875 38.679688 23.886719 Z M 38.679688 23.886719 "/>
<path style=" stroke:none;fill-rule:nonzero;fill:rgb(16.078431%,80.784314%,96.470588%);fill-opacity:1;" d="M 79.1875 48.625 L 69.460938 48.625 C 67.742188 48.625 66.351562 47.234375 66.351562 45.519531 C 66.351562 43.804688 67.742188 42.414062 69.460938 42.414062 L 79.1875 42.414062 C 80.90625 42.414062 82.296875 43.804688 82.296875 45.519531 C 82.296875 47.234375 80.90625 48.625 79.1875 48.625 Z M 79.1875 48.625 "/>
<path style=" stroke:none;fill-rule:nonzero;fill:rgb(100%,76.470588%,15.686275%);fill-opacity:1;" d="M 95.132812 61.046875 L 69.460938 61.046875 C 67.742188 61.046875 66.351562 59.65625 66.351562 57.941406 C 66.351562 56.226562 67.742188 54.835938 69.460938 54.835938 L 95.132812 54.835938 C 96.847656 54.835938 98.234375 56.226562 98.234375 57.941406 C 98.234375 59.65625 96.847656 61.046875 95.132812 61.046875 Z M 95.132812 61.046875 "/>
<path style=" stroke:none;fill-rule:nonzero;fill:rgb(96.862745%,55.686275%,21.176471%);fill-opacity:1;" d="M 87.503906 73.46875 L 69.460938 73.46875 C 67.742188 73.46875 66.351562 72.078125 66.351562 70.363281 C 66.351562 68.648438 67.742188 67.257812 69.460938 67.257812 L 87.503906 67.257812 C 89.21875 67.257812 90.609375 68.648438 90.609375 70.363281 C 90.609375 72.078125 89.21875 73.46875 87.503906 73.46875 Z M 87.503906 73.46875 "/>
<path style=" stroke:none;fill-rule:nonzero;fill:rgb(0%,0%,0%);fill-opacity:1;" d="M 98.234375 14.804688 L 92.800781 14.804688 C 91.941406 14.804688 91.246094 15.496094 91.246094 16.355469 C 91.246094 17.214844 91.941406 17.90625 92.800781 17.90625 L 98.234375 17.90625 C 100.804688 17.90625 102.894531 19.996094 102.894531 22.566406 L 102.894531 29.710938 L 3.105469 29.710938 L 3.105469 22.566406 C 3.105469 19.996094 5.195312 17.90625 7.765625 17.90625 L 85.980469 17.90625 C 86.839844 17.90625 87.535156 17.214844 87.535156 16.355469 C 87.535156 15.496094 86.839844 14.804688 85.980469 14.804688 L 7.765625 14.804688 C 3.484375 14.804688 0 18.285156 0 22.566406 L 0 39.683594 C 0 40.542969 0.695312 41.238281 1.554688 41.238281 C 2.410156 41.238281 3.105469 40.542969 3.105469 39.683594 L 3.105469 32.8125 L 102.894531 32.8125 L 102.894531 72.847656 C 102.894531 73.703125 103.589844 74.398438 104.445312 74.398438 C 105.304688 74.398438 106 73.703125 106 72.847656 L 106 22.566406 C 106 18.285156 102.515625 14.800781 98.234375 14.800781 Z M 98.234375 14.804688 "/>
<path style=" stroke:none;fill-rule:nonzero;fill:rgb(0%,0%,0%);fill-opacity:1;" d="M 104.445312 77.84375 C 103.589844 77.84375 102.894531 78.539062 102.894531 79.394531 L 102.894531 83.433594 C 102.894531 86.003906 100.804688 88.09375 98.234375 88.09375 L 7.765625 88.09375 C 5.195312 88.09375 3.105469 86.003906 3.105469 83.433594 L 3.105469 46.347656 C 3.105469 45.488281 2.410156 44.792969 1.554688 44.792969 C 0.695312 44.792969 0 45.488281 0 46.347656 L 0 83.433594 C 0 87.714844 3.484375 91.195312 7.765625 91.195312 L 98.234375 91.195312 C 102.515625 91.195312 106 87.714844 106 83.433594 L 106 79.394531 C 106 78.539062 105.304688 77.84375 104.445312 77.84375 Z M 104.445312 77.84375 "/>
<path style=" stroke:none;fill-rule:nonzero;fill:rgb(0%,0%,0%);fill-opacity:1;" d="M 22.460938 48.539062 C 21.851562 47.933594 20.871094 47.933594 20.261719 48.539062 L 10.933594 57.871094 C 10.640625 58.164062 10.476562 58.558594 10.476562 58.96875 C 10.476562 59.382812 10.640625 59.777344 10.933594 60.066406 L 20.140625 69.273438 C 20.441406 69.578125 20.839844 69.730469 21.238281 69.730469 C 21.636719 69.730469 22.03125 69.578125 22.335938 69.273438 C 22.941406 68.667969 22.941406 67.683594 22.335938 67.078125 L 14.226562 58.96875 L 22.460938 50.734375 C 23.066406 50.128906 23.066406 49.148438 22.460938 48.539062 Z M 22.460938 48.539062 "/>
<path style=" stroke:none;fill-rule:nonzero;fill:rgb(0%,0%,0%);fill-opacity:1;" d="M 43.339844 69.273438 C 43.644531 69.578125 44.042969 69.730469 44.4375 69.730469 C 44.835938 69.730469 45.234375 69.578125 45.535156 69.273438 L 54.746094 60.066406 C 55.035156 59.777344 55.199219 59.378906 55.199219 58.96875 C 55.199219 58.558594 55.035156 58.164062 54.746094 57.871094 L 45.414062 48.539062 C 44.808594 47.933594 43.824219 47.933594 43.21875 48.539062 C 42.609375 49.144531 42.609375 50.128906 43.21875 50.734375 L 51.449219 58.96875 L 43.339844 67.078125 C 42.734375 67.683594 42.734375 68.667969 43.339844 69.273438 Z M 43.339844 69.273438 "/>
<path style=" stroke:none;fill-rule:nonzero;fill:rgb(0%,0%,0%);fill-opacity:1;" d="M 27.324219 74.992188 C 27.953125 74.992188 28.542969 74.613281 28.777344 73.992188 L 39.8125 44.925781 C 40.117188 44.121094 39.710938 43.226562 38.910156 42.921875 C 38.109375 42.617188 37.210938 43.019531 36.910156 43.824219 L 25.875 72.890625 C 25.570312 73.691406 25.972656 74.589844 26.773438 74.890625 C 26.957031 74.960938 27.144531 74.992188 27.324219 74.992188 Z M 27.324219 74.992188 "/>
<path style=" stroke:none;fill-rule:nonzero;fill:rgb(0%,0%,0%);fill-opacity:1;" d="M 6.832031 23.886719 C 6.832031 26.453125 8.921875 28.542969 11.492188 28.542969 C 14.058594 28.542969 16.148438 26.453125 16.148438 23.886719 C 16.148438 21.316406 14.058594 19.226562 11.492188 19.226562 C 8.921875 19.226562 6.832031 21.316406 6.832031 23.886719 Z M 13.042969 23.886719 C 13.042969 24.742188 12.347656 25.4375 11.492188 25.4375 C 10.636719 25.4375 9.9375 24.742188 9.9375 23.886719 C 9.9375 23.027344 10.636719 22.332031 11.492188 22.332031 C 12.347656 22.332031 13.042969 23.027344 13.042969 23.886719 Z M 13.042969 23.886719 "/>
<path style=" stroke:none;fill-rule:nonzero;fill:rgb(0%,0%,0%);fill-opacity:1;" d="M 18.875 23.886719 C 18.875 26.453125 20.964844 28.542969 23.53125 28.542969 C 26.101562 28.542969 28.191406 26.453125 28.191406 23.886719 C 28.191406 21.316406 26.101562 19.226562 23.53125 19.226562 C 20.964844 19.226562 18.875 21.316406 18.875 23.886719 Z M 25.085938 23.886719 C 25.085938 24.742188 24.390625 25.4375 23.53125 25.4375 C 22.675781 25.4375 21.980469 24.742188 21.980469 23.886719 C 21.980469 23.027344 22.675781 22.332031 23.53125 22.332031 C 24.390625 22.332031 25.085938 23.027344 25.085938 23.886719 Z M 25.085938 23.886719 "/>
<path style=" stroke:none;fill-rule:nonzero;fill:rgb(0%,0%,0%);fill-opacity:1;" d="M 30.914062 23.886719 C 30.914062 26.453125 33.003906 28.542969 35.574219 28.542969 C 38.140625 28.542969 40.230469 26.453125 40.230469 23.886719 C 40.230469 21.316406 38.140625 19.226562 35.574219 19.226562 C 33.003906 19.226562 30.914062 21.316406 30.914062 23.886719 Z M 37.125 23.886719 C 37.125 24.742188 36.429688 25.4375 35.574219 25.4375 C 34.71875 25.4375 34.019531 24.742188 34.019531 23.886719 C 34.019531 23.027344 34.71875 22.332031 35.574219 22.332031 C 36.429688 22.332031 37.125 23.027344 37.125 23.886719 Z M 37.125 23.886719 "/>
<path style=" stroke:none;fill-rule:nonzero;fill:rgb(0%,0%,0%);fill-opacity:1;" d="M 69.460938 50.179688 L 79.1875 50.179688 C 81.757812 50.179688 83.847656 48.089844 83.847656 45.519531 C 83.847656 42.949219 81.757812 40.863281 79.1875 40.863281 L 69.460938 40.863281 C 66.890625 40.863281 64.800781 42.949219 64.800781 45.519531 C 64.800781 48.089844 66.890625 50.179688 69.460938 50.179688 Z M 69.460938 43.96875 L 79.1875 43.96875 C 80.046875 43.96875 80.742188 44.664062 80.742188 45.519531 C 80.742188 46.375 80.046875 47.074219 79.1875 47.074219 L 69.460938 47.074219 C 68.601562 47.074219 67.90625 46.375 67.90625 45.519531 C 67.90625 44.664062 68.601562 43.96875 69.460938 43.96875 Z M 69.460938 43.96875 "/>
<path style=" stroke:none;fill-rule:nonzero;fill:rgb(0%,0%,0%);fill-opacity:1;" d="M 69.460938 62.601562 L 95.132812 62.601562 C 97.699219 62.601562 99.789062 60.511719 99.789062 57.941406 C 99.789062 55.371094 97.699219 53.285156 95.132812 53.285156 L 69.460938 53.285156 C 66.890625 53.285156 64.800781 55.371094 64.800781 57.941406 C 64.800781 60.511719 66.890625 62.601562 69.460938 62.601562 Z M 69.460938 56.390625 L 95.132812 56.390625 C 95.988281 56.390625 96.683594 57.085938 96.683594 57.941406 C 96.683594 58.796875 95.988281 59.496094 95.132812 59.496094 L 69.460938 59.496094 C 68.601562 59.496094 67.90625 58.796875 67.90625 57.941406 C 67.90625 57.085938 68.601562 56.390625 69.460938 56.390625 Z M 69.460938 56.390625 "/>
<path style=" stroke:none;fill-rule:nonzero;fill:rgb(0%,0%,0%);fill-opacity:1;" d="M 69.460938 75.023438 L 87.503906 75.023438 C 90.074219 75.023438 92.164062 72.933594 92.164062 70.363281 C 92.164062 67.792969 90.074219 65.707031 87.503906 65.707031 L 69.460938 65.707031 C 66.890625 65.707031 64.800781 67.792969 64.800781 70.363281 C 64.800781 72.933594 66.890625 75.023438 69.460938 75.023438 Z M 69.460938 68.8125 L 87.503906 68.8125 C 88.359375 68.8125 89.058594 69.507812 89.058594 70.363281 C 89.058594 71.21875 88.359375 71.917969 87.503906 71.917969 L 69.460938 71.917969 C 68.601562 71.917969 67.90625 71.21875 67.90625 70.363281 C 67.90625 69.507812 68.601562 68.8125 69.460938 68.8125 Z M 69.460938 68.8125 "/>
</g>
</svg>
